<?xml version="1.0" encoding="UTF-8" standalone="no"?>
        <svg 
    viewBox="14.94140625 -74.6337890625 436.962890625 51.4892578125"
    width="422.021484375"
    height="126.123046875"
   xmlns="http://www.w3.org/2000/svg"
   xmlns:svg="http://www.w3.org/2000/svg">
   <path d="M16.70 1.03L16.70 1.03Q19.78-7.76 22.41-28.05Q25.05-48.34 25.63-69.73L25.63-69.73Q25.93-82.03 26.29-87.89Q26.66-93.75 27.39-94.48L27.39-94.48Q27.69-95.51 31.49-95.80Q35.30-96.09 48.34-96.09L48.34-96.09Q54.49-95.80 58.89-95.80L58.89-95.80Q65.92-95.80 67.82-96.75Q69.73-97.71 69.73-102.39L69.73-102.39Q69.73-104.15 69.43-106.35L69.43-106.35Q69.43-110.60 69.80-111.91Q70.17-113.23 71.78-113.67L71.78-113.67Q72.51-113.96 73.32-114.26Q74.12-114.55 74.41-114.55L74.41-114.55Q75.44-114.55 77.12-112.79Q78.81-111.04 78.81-110.01L78.81-110.01Q79.10-109.57 83.06-109.28Q87.01-108.98 94.19-108.98L94.19-108.98Q101.07-108.98 105.76-108.69Q110.45-108.40 111.33-107.96L111.33-107.96Q112.35-107.08 112.87-105.54Q113.38-104.00 113.38-103.42L113.38-103.42Q113.38-102.54 112.94-102.10L112.94-102.10Q112.65-102.10 107.89-101.88Q103.13-101.66 95.95-101.66L95.95-101.66Q84.67-101.07 82.03-100.71Q79.39-100.34 79.39-99.32L79.39-99.32Q79.39-99.17 79.39-99.02L79.39-99.02Q79.25-98.88 79.25-98.73L79.25-98.73Q79.25-97.71 83.42-97.27Q87.60-96.83 107.08-96.53L107.08-96.53L134.47-96.09L134.77-93.46Q134.91-93.02 134.91-92.58L134.91-92.58Q134.91-91.26 134.18-89.43Q133.45-87.60 132.13-84.96L132.13-84.96Q129.20-79.69 127.44-78.96Q125.68-78.22 124.95-78.22L124.95-78.22Q122.75-78.22 120.56-80.57L120.56-80.57Q119.53-81.30 119.31-82.10Q119.09-82.91 119.09-83.64L119.09-83.64Q119.09-84.38 119.24-85.25L119.24-85.25L119.97-88.48L78.81-87.60Q61.52-87.30 49.73-87.08Q37.94-86.87 37.50-86.87L37.50-86.87Q37.21-86.57 37.06-82.62Q36.91-78.66 36.62-72.80L36.62-72.80Q36.47-67.09 36.04-61.30Q35.60-55.52 35.30-52.59L35.30-52.59Q34.86-49.66 34.20-42.92Q33.54-36.18 32.96-29.15L32.96-29.15Q31.93-17.29 31.13-11.72Q30.32-6.15 28.71-0.15L28.71-0.15Q26.95 6.45 24.32 9.01Q21.68 11.57 19.63 11.57L19.63 11.57Q18.60 11.57 17.43 10.99L17.43 10.99Q15.09 9.67 15.01 8.50Q14.94 7.32 14.94 7.18L14.94 7.18Q14.94 5.13 16.70 1.03ZM49.95-50.39L49.95-50.39Q50.10-54.35 50.68-55.22L50.68-55.22Q51.12-56.25 53.91-56.54Q56.69-56.84 63.87-56.98L63.87-56.98Q69.14-56.98 77.86-57.13Q86.57-57.28 94.63-57.57L94.63-57.57Q99.02-57.71 102.54-57.71L102.54-57.71Q113.23-57.71 115.72-56.10Q118.21-54.49 118.21-46.58L118.21-46.58Q118.21-44.09 117.92-41.02L117.92-41.02Q117.92-35.45 117.77-31.05Q117.63-26.66 117.33-25.93L117.33-25.93Q117.04-25.34 116.16-24.61Q115.28-23.88 114.40-23.58L114.40-23.58Q108.69-22.56 82.54-22.56Q56.40-22.56 51.42-23.58L51.42-23.58Q50.10-23.88 49.88-26.59Q49.66-29.30 49.66-39.11L49.66-39.11Q49.66-46.44 49.95-50.39ZM30.91 1.76L30.91 1.76Q31.35 1.03 32.96 0.44Q34.57-0.15 37.79-0.15L37.79-0.15Q41.75-0.15 42.48-0.59Q43.21-1.03 43.36-2.05L43.36-2.05Q43.21-2.34 43.21-2.78L43.21-2.78Q43.07-4.25 43.07-5.71L43.07-5.71Q43.07-8.35 43.73-11.87Q44.38-15.38 45.85-16.99L45.85-16.99Q46.14-18.31 52.59-18.53Q59.03-18.75 83.94-18.75L83.94-18.75Q103.86-18.75 112.43-18.53Q121.00-18.31 121.58-17.72L121.58-17.72Q122.17-17.29 122.39-14.72Q122.61-12.16 122.61-8.50L122.61-8.50Q122.61-2.93 123.05-1.76Q123.49-0.59 124.95-0.59L124.95-0.59Q130.52-0.29 132.79 0.59Q135.06 1.46 135.06 3.37L135.06 3.37Q135.06 4.39 134.62 5.35Q134.18 6.30 133.74 6.74L133.74 6.74Q133.15 7.32 120.92 7.54Q108.69 7.76 82.32 8.06L82.32 8.06Q66.80 8.20 56.54 8.20L56.54 8.20Q43.65 8.20 37.28 7.91Q30.91 7.62 30.91 6.59L30.91 6.59Q30.91 6.59 30.91 6.45L30.91 6.45Q29.88 4.98 29.88 4.03Q29.88 3.08 30.91 1.76ZM44.09-75.29L44.09-75.29Q44.38-77.34 47.02-78.37Q49.66-79.39 54.05-79.39L54.05-79.39Q56.98-79.39 58.01-79.83Q59.03-80.27 59.03-81.30L59.03-81.30Q59.03-81.88 59.47-82.76Q59.91-83.64 60.64-84.52L60.64-84.52Q62.11-86.13 63.72-86.13L63.72-86.13Q65.77-86.13 67.82-83.20L67.82-83.20Q69.14-81.30 70.02-81.01Q70.90-80.71 71.92-80.71L71.92-80.71Q73.10-80.71 75.15-81.01L75.15-81.01Q95.80-83.50 104.88-83.50L104.88-83.50Q106.49-83.50 110.23-83.28Q113.96-83.06 113.96-80.13L113.96-80.13Q113.96-79.25 113.38-78.08L113.38-78.08Q112.94-76.32 109.20-75.51Q105.47-74.71 92.29-74.41L92.29-74.41Q82.76-73.97 77.27-73.32Q71.78-72.66 70.75-71.78L70.75-71.78L70.75-70.90Q70.75-70.17 70.90-69.73L70.90-69.73Q70.90-68.70 73.39-68.63Q75.88-68.55 78.08-68.55L78.08-68.55Q82.62-68.55 91.26-68.70L91.26-68.70Q97.85-68.85 102.54-68.85L102.54-68.85Q109.57-68.85 113.23-68.33Q116.89-67.82 116.89-64.89L116.89-64.89Q116.89-64.89 116.89-64.75L116.89-64.75Q117.04-64.31 117.04-63.72L117.04-63.72Q117.04-61.96 113.23-61.23Q109.42-60.50 89.65-60.21L89.65-60.21Q81.45-59.91 75.88-59.91L75.88-59.91Q69.29-59.91 65.48-60.57Q61.67-61.23 60.35-65.48L60.35-65.48Q59.33-68.41 58.01-69.21Q56.69-70.02 52.73-70.02L52.73-70.02Q48.05-70.46 46.07-71.70Q44.09-72.95 44.09-74.71L44.09-74.71Q44.09-75 44.09-75.29ZM52.44-0.88L57.57-0.88Q59.62-0.88 61.60-0.59Q63.57-0.29 64.60-0.15L64.60-0.15Q65.19 0.15 65.63 0.15L65.63 0.15Q66.06 0.15 66.43-0.37Q66.80-0.88 66.80-3.81L66.80-3.81Q66.80-5.57 66.36-7.03Q65.92-8.50 65.48-9.08L65.48-9.08Q64.16-10.11 61.38-10.18Q58.59-10.25 57.86-10.25L57.86-10.25Q54.20-10.25 53.03-9.52L53.03-9.52Q52.73-9.38 52.59-8.06Q52.44-6.74 52.44-4.83L52.44-4.83L52.44-0.88ZM76.61-8.35L76.61-8.35Q76.76-7.18 77.34-5.86L77.34-5.86Q77.49-4.25 77.64-3.08Q77.78-1.90 77.78-1.46L77.78-1.46Q77.78-0.88 80.27-0.66Q82.76-0.44 84.67-0.44L84.67-0.44Q86.57-0.44 88.62-0.59L88.62-0.59Q89.21-0.88 89.28-2.05Q89.36-3.22 89.36-5.13L89.36-5.13Q89.36-7.76 88.99-8.64Q88.62-9.52 87.30-9.52L87.30-9.52Q84.96-10.11 81.23-10.11Q77.49-10.11 76.76-9.52L76.76-9.52Q76.61-9.38 76.61-8.94L76.61-8.94Q76.61-8.64 76.61-8.35ZM100.49-4.25L100.20-0.88L112.06-0.88L112.06-4.83Q112.06-6.88 111.84-8.13Q111.62-9.38 111.04-9.52L111.04-9.52Q110.45-9.81 108.91-9.96Q107.37-10.11 105.18-10.11L105.18-10.11Q104.00-10.25 103.13-10.25L103.13-10.25Q102.39-10.25 101.59-10.03Q100.78-9.81 100.78-9.08L100.78-9.08Q100.78-8.50 100.63-7.18Q100.49-5.86 100.49-4.25L100.49-4.25ZM59.33-32.52L59.33-32.52Q59.62-31.79 61.74-31.49Q63.87-31.20 69.14-31.20L69.14-31.20L78.08-31.20L78.08-37.06L68.85-36.77Q61.96-36.47 60.42-35.82Q58.89-35.16 58.89-33.98L58.89-33.98Q58.89-33.40 59.33-32.52ZM89.36-31.20L98.14-31.20Q102.10-31.20 104.74-31.35Q107.37-31.49 107.67-31.79L107.67-31.79Q107.81-31.93 107.81-32.74Q107.81-33.54 107.67-34.42L107.67-34.42Q107.67-36.18 106.49-36.55Q105.32-36.91 102.69-36.91L102.69-36.91Q100.93-36.91 98.44-36.77L98.44-36.77L89.36-36.77L89.36-31.20ZM61.38-44.68L61.38-44.68Q62.11-44.53 63.87-44.53L63.87-44.53Q65.63-44.53 68.26-44.68L68.26-44.68Q74.41-44.68 76.61-45.41Q78.81-46.14 78.81-47.46L78.81-47.46Q78.81-47.61 78.81-47.75L78.81-47.75Q78.81-47.90 78.81-47.90L78.81-47.90Q78.81-48.63 76.98-48.85Q75.15-49.07 70.17-49.07L70.17-49.07Q66.21-49.07 63.57-49.00Q60.94-48.93 60.64-48.63L60.64-48.63Q60.35-48.34 60.13-47.53Q59.91-46.73 59.91-46.00L59.91-46.00Q59.91-44.97 61.38-44.68ZM89.36-47.31L89.36-47.31Q89.36-47.17 89.36-47.17L89.36-47.17Q89.36-46.00 90.97-45.70Q92.58-45.41 98.88-45.41L98.88-45.41Q105.03-45.41 106.86-45.70Q108.69-46.00 108.69-47.31L108.69-47.31Q108.84-47.61 108.84-47.90L108.84-47.90Q108.84-48.63 107.45-48.85Q106.05-49.07 99.17-49.07L99.17-49.07Q92.58-49.07 90.97-48.85Q89.36-48.63 89.36-47.46L89.36-47.46Q89.36-47.46 89.36-47.31ZM198.05-7.03L198.05-7.03Q201.42-23.58 202.51-34.94Q203.61-46.29 203.91-70.61L203.91-70.61Q204.05-84.52 204.20-94.41Q204.35-104.30 204.64-105.62L204.64-105.62L205.22-107.67L236.87-107.67Q256.79-107.67 263.16-107.45Q269.53-107.23 269.82-106.20L269.82-106.20Q270.26-105.62 270.70-99.39Q271.14-93.16 271.14-78.52L271.14-78.52Q271.29-57.42 272.39-46.29Q273.49-35.16 276.42-23.14L276.42-23.14Q278.76-13.33 279.42-11.79Q280.08-10.25 280.37-10.25L280.37-10.25Q280.81-10.25 281.10-11.72L281.10-11.72Q281.69-14.36 283.23-14.79Q284.77-15.23 285.64-15.23L285.64-15.23Q287.26-15.23 289.01-14.36L289.01-14.36Q290.04-13.62 290.70-12.52Q291.36-11.43 291.36-10.69L291.36-10.69Q291.06-8.06 288.43-1.32Q285.79 5.42 284.33 7.18L284.33 7.18Q283.15 8.06 281.84 8.06L281.84 8.06Q279.05 8.06 275.17 3.30Q271.29-1.46 268.51-11.72L268.51-11.72Q264.26-26.22 262.50-39.70Q260.74-53.17 260.60-74.56L260.60-74.56L260.01-96.68L214.89-96.68L214.89-73.97Q214.60-64.16 214.38-54.71Q214.16-45.26 213.57-40.28L213.57-40.28Q212.26-27.83 210.06-15.01Q207.86-2.20 205.96 4.10L205.96 4.10Q205.22 6.74 203.54 7.69Q201.86 8.64 200.39 8.64L200.39 8.64Q199.66 8.64 198.78 8.35L198.78 8.35Q196.73 7.76 196.58 5.86Q196.44 3.96 196.44 3.52L196.44 3.52Q196.44 0.15 198.05-7.03ZM219.29-60.50L219.29-60.50Q220.90-61.82 225.29-61.82L225.29-61.82Q226.17-61.82 227.05-61.82L227.05-61.82L233.06-61.82L232.91-67.97L232.91-73.97L228.66-74.27Q223.83-74.56 221.85-75.22Q219.87-75.88 219.43-77.20L219.43-77.20Q218.85-78.37 218.85-79.54L218.85-79.54Q218.85-80.42 219.51-82.10Q220.17-83.79 222.36-84.23L222.36-84.23Q223.39-84.52 226.03-84.52Q228.66-84.52 231.59-84.23L231.59-84.23Q234.67-84.23 238.77-84.08Q242.87-83.94 246.09-83.94L246.09-83.94Q250.78-83.94 252.39-83.57Q254.00-83.20 254.44-82.18L254.44-82.18Q255.03-80.71 255.03-79.54L255.03-79.54Q255.03-77.93 253.20-76.46Q251.37-75 245.21-75L245.21-75L240.97-75L240.97-62.40L248.73-61.82Q252.83-61.82 254.81-61.45Q256.79-61.08 257.37-60.21L257.37-60.21Q257.67-59.47 257.89-53.25Q258.11-47.02 258.11-38.67L258.11-38.67Q258.11-24.17 257.89-20.58Q257.67-16.99 255.76-15.97L255.76-15.97Q254.00-13.92 252.54-13.92Q251.07-13.92 247.85-16.26L247.85-16.26Q245.51-17.58 244.70-18.75Q243.90-19.92 243.90-21.53L243.90-21.53Q244.19-23.29 245.36-24.17Q246.53-25.05 247.27-25.05L247.27-25.05Q248.00-25.05 248.73-24.61L248.73-24.61Q248.88-24.46 249.02-24.46L249.02-24.46Q249.76-24.46 249.83-26.44Q249.90-28.42 249.90-30.32L249.90-30.32Q249.90-34.13 249.76-40.72L249.76-40.72L249.17-53.17L239.94-53.17L240.23-25.20Q240.23-4.83 239.72 0.29Q239.21 5.42 237.16 5.42L237.16 5.42Q237.01 5.42 236.87 5.42L236.87 5.42Q236.72 5.42 236.72 5.42L236.72 5.42Q234.67 5.42 233.86-0.15Q233.06-5.71 232.62-23.58L232.62-23.58Q232.32-34.13 232.03-41.82Q231.74-49.51 231.59-50.98L231.59-50.98Q231.59-51.27 231.59-51.71L231.59-51.71Q231.59-52.73 231.15-53.17Q230.71-53.61 229.10-53.61L229.10-53.61L226.76-53.61L226.76-35.45Q226.46-23.88 226.10-20.21Q225.73-16.55 224.71-16.26L224.71-16.26Q223.83-15.38 223.10-15.38L223.10-15.38Q221.92-15.38 220.90-18.46Q219.87-21.53 219.43-34.13L219.43-34.13Q218.85-41.02 218.48-46.66Q218.12-52.29 217.82-54.20L217.82-54.20Q217.68-55.22 217.68-56.10L217.68-56.10Q217.68-59.18 219.29-60.50ZM159.52-48.63L159.52-48.63Q159.81-49.51 161.28-52.88Q162.74-56.25 164.50-60.79L164.50-60.79Q170.65-75.29 177.61-90.16Q184.57-105.03 187.50-109.28L187.50-109.28Q189.55-111.91 190.87-112.21Q192.19-112.50 192.63-112.50L192.63-112.50Q194.38-112.50 196.00-110.89L196.00-110.89Q197.31-109.57 197.39-108.69Q197.46-107.81 197.46-107.67L197.46-107.67Q197.46-106.05 196.14-104.30L196.14-104.30Q195.70-103.56 194.60-101.44Q193.51-99.32 192.77-96.68L192.77-96.68Q191.75-94.34 190.28-91.11Q188.82-87.89 187.50-85.25L187.50-85.25L184.57-79.83L184.86-38.38Q185.01-28.27 185.01-20.36L185.01-20.36Q185.01-12.45 184.79-4.03Q184.57 4.39 184.13 5.86L184.13 5.86Q182.96 8.79 181.64 9.30Q180.32 9.81 179.74 9.81L179.74 9.81Q178.27 9.81 176.66 8.50L176.66 8.50Q175.34 8.35 174.98 2.78Q174.61-2.78 174.61-24.46L174.61-24.46Q174.61-37.65 174.46-46.44Q174.32-55.22 173.73-55.52L173.73-55.52Q173.73-55.52 173.58-55.52L173.58-55.52Q173.14-55.52 172.41-53.83Q171.68-52.15 169.63-45.70L169.63-45.70Q167.72-41.02 165.97-40.14Q164.21-39.26 163.18-39.26L163.18-39.26Q161.57-39.26 160.11-40.72L160.11-40.72Q158.79-42.04 158.72-43.29Q158.64-44.53 158.64-44.82L158.64-44.82Q158.64-46.88 159.52-48.63ZM369.73-32.23L369.73-32.23Q369.87-41.60 371.19-43.21L371.19-43.21Q371.63-44.24 377.20-44.53Q382.76-44.82 399.61-44.82L399.61-44.82L426.56-44.82L427.59-42.19Q428.03-41.16 428.10-39.99Q428.17-38.82 428.17-38.23L428.17-38.23Q428.17-37.06 428.03-35.89L428.03-35.89Q427.88-33.98 427.73-27.91Q427.59-21.83 427.59-14.21L427.59-14.21Q427.88-10.40 427.88-7.32L427.88-7.32Q427.88 3.52 425.32 5.49Q422.75 7.47 413.09 7.47L413.09 7.47Q407.37 7.47 399.32 6.88L399.32 6.88Q389.36 6.59 382.10 6.37Q374.85 6.15 373.97 5.86L373.97 5.86Q372.66 5.57 372.00 2.56Q371.34-0.44 370.61-9.67L370.61-9.67Q369.73-21.24 369.73-29.88L369.73-29.88Q369.73-31.05 369.73-32.23ZM366.94-68.99L366.94-68.99Q368.99-75.15 376.90-90.97L376.90-90.97Q383.79-104.59 385.91-107.96Q388.04-111.33 389.21-111.33L389.21-111.33Q389.50-111.33 389.65-111.18L389.65-111.18Q390.67-111.18 391.85-110.67Q393.02-110.16 393.75-109.42L393.75-109.42Q395.21-108.40 395.21-106.05L395.21-106.05Q395.21-104.15 393.60-99.76Q391.99-95.36 382.18-76.76L382.18-76.76L376.17-65.33L380.42-65.92Q382.47-66.36 388.26-66.94Q394.04-67.53 401.22-67.97L401.22-67.97Q408.11-68.85 413.09-69.36Q418.07-69.87 418.80-70.17L418.80-70.17Q419.09-70.17 419.09-70.75L419.09-70.75Q419.09-71.04 418.87-72.00Q418.65-72.95 417.04-75.88L417.04-75.88Q415.14-79.39 414.77-80.71Q414.40-82.03 414.40-82.91L414.40-82.91Q414.40-83.94 414.70-84.81L414.70-84.81Q414.84-87.01 415.50-87.82Q416.16-88.62 417.77-89.06L417.77-89.06Q418.36-89.21 418.80-89.21L418.80-89.21Q419.38-89.21 420.19-88.99Q421.00-88.77 421.44-88.33L421.44-88.33Q423.63-85.99 427.73-78.30Q431.84-70.61 434.18-64.60L434.18-64.60Q436.82-57.71 436.89-56.03Q436.96-54.35 436.96-54.20L436.96-54.20Q436.96-51.42 434.62-50.10L434.62-50.10Q433.30-48.93 432.42-48.93L432.42-48.93Q432.28-48.93 431.76-49.00Q431.25-49.07 429.64-50.10L429.64-50.10Q428.61-51.12 427.59-52.73Q426.56-54.35 426.27-55.81L426.27-55.81Q425.39-58.30 424.80-58.89Q424.22-59.47 423.49-59.47L423.49-59.47Q423.19-59.47 422.75-59.33L422.75-59.33Q421.44-59.33 416.31-58.89Q411.18-58.45 404.30-57.71L404.30-57.71Q382.18-55.37 374.41-55.37L374.41-55.37Q373.39-55.37 369.73-55.59Q366.06-55.81 365.92-59.62L365.92-59.62Q365.48-60.64 365.48-62.11L365.48-62.11Q365.48-64.89 366.94-68.99ZM333.11-100.20L333.11-100.20Q333.40-111.47 334.28-111.47L334.28-111.47Q335.74-113.09 338.31-113.09Q340.87-113.09 342.19-111.77L342.19-111.77Q343.21-111.47 343.36-99.24Q343.51-87.01 343.51-51.71L343.51-51.71L343.21 6.88L340.87 8.94Q338.96 10.55 337.21 10.55L337.21 10.55Q336.91 10.55 335.82 10.40Q334.72 10.25 333.40 7.91L333.40 7.91Q332.67 7.47 332.52-5.86Q332.37-19.19 332.37-51.86L332.37-51.86Q332.67-88.77 333.11-100.20ZM379.54-32.08L379.54-32.08Q379.54-30.32 379.83-27.98L379.83-27.98Q379.83-25.49 380.13-21.46Q380.42-17.43 380.57-13.48L380.57-13.48L381.15-4.25L398.29-3.66Q405.62-3.37 410.67-3.37Q415.72-3.37 416.02-3.66L416.02-3.66Q416.16-3.96 416.46-8.42Q416.75-12.89 417.04-19.19L417.04-19.19L417.33-34.57L398.88-34.57Q391.11-34.57 385.77-34.42Q380.42-34.28 379.83-33.98L379.83-33.98Q379.54-33.69 379.54-32.08ZM313.18-51.12L313.18-51.12Q314.21-57.13 315.53-61.74Q316.85-66.36 318.16-67.53L318.16-67.53Q319.63-68.41 321.09-68.41L321.09-68.41Q321.24-68.41 322.19-68.33Q323.14-68.26 324.46-66.65L324.46-66.65Q325.78-65.92 325.78-62.84Q325.78-59.77 324.46-49.80L324.46-49.80Q323.88-46.14 322.19-44.17Q320.51-42.19 317.87-41.89L317.87-41.89Q315.23-42.19 314.14-44.31Q313.04-46.44 313.04-48.78L313.04-48.78Q313.04-49.95 313.18-51.12ZM345.70-69.87L345.70-69.87Q345.85-71.48 347.17-72.95L347.17-72.95Q348.34-74.41 350.39-74.41L350.39-74.41Q350.68-74.41 352.08-74.27Q353.47-74.12 355.37-72.22L355.37-72.22Q357.42-69.87 359.25-65.63Q361.08-61.38 361.67-57.42L361.67-57.42Q361.82-56.10 361.82-55.08L361.82-55.08Q361.82-54.05 361.60-52.95Q361.38-51.86 360.35-50.54L360.35-50.54Q358.89-48.78 357.42-48.78L357.42-48.78Q356.69-48.78 355.08-49.80Q353.47-50.83 351.42-56.98L351.42-56.98Q350.10-59.62 348.85-62.26Q347.61-64.89 346.88-66.21L346.88-66.21Q345.70-68.12 345.70-69.58L345.70-69.58Q345.70-69.73 345.70-69.87Z"/>
    </svg>
        