<svg width="160" height="160" version="1.1" xmlns="http://www.w3.org/2000/svg" xmlns:xlink="http://www.w3.org/1999/xlink"><path d="M102.24 25.59L60.96 33.75Q60.48 37.59 59.68 57.43L59.68 57.43Q59.36 66.07 58.24 71.83L58.24 71.83Q52.80 103.67 36.32 120.47L36.32 120.47Q34.88 121.91 33.60 121.91L33.60 121.91Q32.80 121.11 33.44 119.67L33.44 119.67L33.76 119.03L40.48 106.39Q52.16 80.79 52.16 48.79L52.16 48.79Q52.16 37.91 50.56 33.27L50.56 33.27Q49.60 30.71 47.84 27.51L47.84 27.51Q48 24.31 54.56 26.55L54.56 26.55Q60.96 28.63 62.40 28.47L62.40 28.47Q80.64 26.23 100.32 19.51L100.32 19.51Q101.76 19.03 103.04 18.55L103.04 18.55Q106.88 14.39 115.84 18.07L115.84 18.07Q123.04 20.95 124.80 25.27L124.80 25.27L124.96 26.55Q115.20 34.07 114.56 55.35L114.56 55.35L114.56 65.75Q114.56 83.19 119.84 98.07L119.84 98.07Q122.08 104.47 124.96 108.15L124.96 108.15Q129.28 113.59 132.80 113.75L132.80 113.75Q136.48 110.87 138.72 102.39L138.72 102.39Q140.32 96.63 141.76 94.23L141.76 94.23L142.88 95.35Q144 115.51 144.32 118.23L144.32 118.23L145.44 127.83Q144.96 129.91 142.72 130.39L142.72 130.39Q135.36 131.99 125.44 122.71L125.44 122.71Q121.92 119.51 120 116.47L120 116.47Q106.56 95.19 107.20 55.83L107.20 55.83Q107.20 52.79 107.36 49.43L107.36 49.43L108.48 30.39L108.48 29.75Q108 24.95 103.20 25.43L103.20 25.43Q102.72 25.59 102.24 25.59L102.24 25.59ZM102.56 67.19L102.56 67.19Q101.44 71.83 102.72 83.51L102.72 83.51Q103.68 92.63 102.24 97.75L102.24 97.75L100 102.87Q99.52 103.35 98.88 103.83L98.88 103.83L95.84 103.51L86.56 94.23L92.64 94.55Q95.20 94.23 95.68 91.99L95.68 91.99Q96.64 87.99 95.84 78.71L95.84 78.71Q95.36 71.03 93.92 69.11L93.92 69.11Q89.60 69.11 84.80 70.39L84.80 70.39L84.32 109.91Q84.32 126.07 84 129.27L84 129.27Q83.20 137.11 80.80 138.87L80.80 138.87Q79.84 138.87 78.56 136.95L78.56 136.95Q77.28 122.71 78.24 88.31L78.24 88.31Q78.40 78.39 78.40 71.83L78.40 71.83Q77.44 71.83 70.88 73.27L70.88 73.27L70.24 73.43L69.28 74.87L68.64 92.31Q67.52 102.23 63.84 102.23L63.84 102.23Q60 97.59 61.92 90.07L61.92 90.07Q64.16 81.11 64.16 78.71L64.16 78.71Q64.32 73.59 61.92 68.63L61.92 68.63Q62.72 67.83 65.28 68.63L65.28 68.63Q67.52 70.23 74.24 68.79L74.24 68.79Q76.80 68.15 78.08 68.15L78.08 68.15Q78.08 58.87 74.88 52.47L74.88 52.47Q68.96 51.99 68 51.51L68 51.51Q66.88 51.03 66.08 50.23L66.08 50.23Q66.24 48.95 68.32 48.31L68.32 48.31Q75.20 47.35 90.72 41.43L90.72 41.43Q92 40.95 92.96 40.47L92.96 40.47L98.72 41.27Q100.64 41.91 101.28 43.51L101.28 43.51Q100.32 46.07 82.72 50.87L82.72 50.87L81.60 51.19L85.44 53.59L86.24 54.71L84.80 66.23Q86.72 66.23 90.88 64.15L90.88 64.15Q94.08 62.55 97.44 64.47L97.44 64.47L102.08 66.87Q102.24 67.03 102.56 67.19ZM45.92 16.95L47.20 19.03Q47.04 21.27 43.68 25.27L43.68 25.27Q42.40 26.55 41.92 27.51L41.92 27.51Q30.72 47.03 25.28 54.23L25.28 54.23L31.20 59.83Q32.80 61.75 32.80 63.67L32.80 63.67L32.16 66.23Q31.52 71.19 31.20 77.11L31.20 77.11L30.08 121.91Q30.08 125.91 27.04 129.75L27.04 129.75Q26.72 130.23 26.24 130.71L26.24 130.71Q22.56 130.23 20.48 124.31L20.48 124.31Q20.16 123.51 20 122.87L20 122.87Q19.04 118.55 22.40 102.87L22.40 102.87Q23.52 97.43 23.68 94.87L23.68 94.87Q25.12 78.07 24.96 73.91L24.96 73.91Q24.48 65.27 21.28 59.19L21.28 59.19L12.48 69.91Q8 74.71 3.52 77.11L3.52 77.11L1.76 77.11L2.08 75.35Q33.12 36.15 34.08 19.19L34.08 19.19Q34.40 15.83 33.12 13.43L33.12 13.43Q32.80 9.43 37.12 10.71L37.12 10.71Q42.24 12.31 45.92 16.95L45.92 16.95Z" stroke="#000" fill="black" /></svg>