<svg width="160" height="160" version="1.1" xmlns="http://www.w3.org/2000/svg" xmlns:xlink="http://www.w3.org/1999/xlink"><path d="M133.92 61.70L133.92 61.70Q132 60.10 125.12 52.42L125.12 52.42Q124.64 51.94 124.32 51.62L124.32 51.62Q94.88 58.98 80.48 66.50L80.48 66.50L75.52 69.54Q74.40 70.02 73.28 70.02L73.28 70.02Q68.32 65.86 67.36 63.94L67.36 63.94Q66.72 62.34 66.72 60.74L66.72 60.74Q67.84 59.30 73.12 54.66L73.12 54.66Q75.04 52.90 76.16 51.62L76.16 51.62Q87.36 38.50 91.84 22.98L91.84 22.98Q92.48 20.90 92.80 19.14L92.80 19.14Q92.96 18.50 92.16 13.06L92.16 13.06Q91.52 9.38 93.76 8.10L93.76 8.10Q100.80 8.74 107.84 13.86L107.84 13.86Q108.32 14.98 108.32 17.38L108.32 17.38Q94.40 36.74 84 54.18L84 54.18L84.32 55.94L115.84 48.58L120.64 47.62L111.20 36.90Q110.40 34.02 111.52 33.38L111.52 33.38Q124.16 39.94 124.96 40.42L124.96 40.42Q137.44 47.94 137.44 56.58L137.44 56.58Q137.44 61.38 133.92 61.70ZM124.80 104.58L124.80 104.58L128.48 107.94Q128.96 108.58 129.28 109.22L129.28 109.22Q129.12 110.98 113.76 112.10L113.76 112.10L112.48 112.26Q88.96 115.46 85.12 116.10L85.12 116.10Q84.80 119.94 83.68 121.06L83.68 121.06Q79.84 120.26 77.60 114.02L77.60 114.02L76.16 106.02L76 105.86Q73.44 93.54 68.32 83.94L68.32 83.94Q68.32 82.18 68.96 81.38L68.96 81.38Q74.24 81.70 78.24 83.14L78.24 83.14Q99.84 79.62 118.08 72.90L118.08 72.90Q123.52 72.90 132.48 78.34L132.48 78.34Q133.92 79.30 134.72 79.62L134.72 79.62Q135.36 80.74 135.36 81.86L135.36 81.86Q135.36 83.78 131.84 87.78L131.84 87.78Q131.04 88.74 130.56 89.38L130.56 89.38Q128 93.38 124.80 104.58ZM113.28 81.06L81.28 88.10L84.64 110.50L110.08 105.70Q113.12 105.06 115.84 104.26L115.84 104.26L118.88 89.22Q119.68 85.22 118.40 82.98L118.40 82.98Q117.92 81.86 116.96 81.38L116.96 81.38Q115.52 80.58 113.28 81.06L113.28 81.06ZM60.48 52.10L47.68 41.06Q47.04 63.14 47.04 123.78L47.04 123.78Q45.12 129.06 42.72 130.66L42.72 130.66Q38.88 128.90 36.64 120.90L36.64 120.90Q36 118.50 36 116.74L36 116.74Q36 115.30 37.76 108.42L37.76 108.42Q38.24 106.82 38.40 105.54L38.40 105.54Q40.80 87.30 40.80 61.22Q40.80 35.14 40.64 31.94L40.64 31.94Q40.32 27.46 39.84 23.62L39.84 23.62Q39.04 18.50 34.72 10.66L34.72 10.66Q34.40 4.90 45.44 11.62L45.44 11.62Q48.64 13.54 49.92 14.66L49.92 14.66Q50.88 15.62 50.88 16.90L50.88 16.90Q50.88 18.02 49.28 21.06L49.28 21.06Q47.52 27.14 47.52 36.10L47.52 36.10L59.20 39.78Q63.84 41.86 65.12 45.54L65.12 45.54Q65.44 46.66 65.44 47.78L65.44 47.78Q65.60 50.50 64.32 52.10L64.32 52.10Q62.72 54.02 60.48 52.10L60.48 52.10ZM17.92 65.22L20.32 54.82Q23.04 51.46 24.96 58.18L24.96 58.18Q27.36 67.46 24.80 77.38L24.80 77.38L23.20 82.18Q20.80 86.82 16.64 86.82L16.64 86.82Q11.52 82.50 14.88 73.38L14.88 73.38L17.92 65.22Z" stroke="#000" fill="black" /></svg>