<svg width="160" height="160" version="1.1" xmlns="http://www.w3.org/2000/svg" xmlns:xlink="http://www.w3.org/1999/xlink"><path d="M127.04 43.40L127.04 43.40Q127.04 44.52 123.68 46.12L123.68 46.12Q117.92 47.56 108.32 54.12L108.32 54.12L106.72 54.28L111.04 42.12Q111.36 41.32 108.96 39.88L108.96 39.88Q96.80 39.88 73.12 45.16L73.12 45.16Q76.16 46.44 77.28 48.20L77.28 48.20L76.64 54.92L76.64 55.08Q77.92 54.92 85.76 52.84L85.76 52.84Q92.96 51.08 96.80 54.60L96.80 54.60Q96.80 56.68 81.28 59.40L81.28 59.40L76.32 60.36Q76.32 65.32 79.04 66.92L79.04 66.92Q81.28 68.04 87.52 67.72L87.52 67.72Q90.08 67.56 91.36 67.24L91.36 67.24Q95.04 66.12 99.68 58.12L99.68 58.12Q100 57.32 100.32 56.84L100.32 56.84L100.96 57.00Q102.08 63.24 104.16 66.28L104.16 66.28Q104.16 70.60 95.20 72.84L95.20 72.84Q84.48 75.72 76.96 72.36L76.96 72.36Q74.40 71.24 73.12 69.32L73.12 69.32Q71.68 66.92 71.36 61.80L71.36 61.80L61.92 63.72Q58.72 63.88 56.64 62.76L56.64 62.76L54.72 61.32L54.72 61.16L55.68 60.04L70.88 57.48Q71.04 57.32 71.20 57.32L71.20 57.32Q71.20 50.60 69.76 45.64L69.76 45.64Q68 45.80 58.56 48.68L58.56 48.68Q53.92 50.12 50.56 50.12L50.56 50.12Q49.60 54.28 48.48 68.36L48.48 68.36Q48.32 71.56 48 73.96L48 73.96Q44.80 96.20 41.60 105.16L41.60 105.16Q36.96 118.44 27.04 127.56L27.04 127.56Q18.72 135.40 13.76 137.00L13.76 137.00Q11.20 137.96 8.48 137.96L8.48 137.96L8.32 137.48L8.80 136.68Q10.72 134.44 20.96 123.40L20.96 123.40Q30.72 112.84 34.72 101.80L34.72 101.80Q39.04 89.64 40.32 69.80L40.32 69.80Q41.60 49.96 36.80 43.40L36.80 43.40Q36.80 41.64 37.76 41.32L37.76 41.32Q40.48 41.32 47.36 44.52L47.36 44.52Q48.32 44.84 48.96 45.16L48.96 45.16L74.08 41.00Q74.88 40.84 75.52 40.84L75.52 40.84L76 40.36L74.56 24.68Q73.60 18.76 71.20 14.44L71.20 14.44Q71.20 13.00 72.64 12.20L72.64 12.20Q80.48 12.52 84.80 17.00L84.80 17.00L84 21.32L99.36 17.96Q106.24 17.00 107.84 19.72L107.84 19.72Q107.84 23.88 91.68 25.00L91.68 25.00Q85.76 25.48 83.52 25.16L83.52 25.16Q81.92 33.00 81.92 39.08L81.92 39.08Q83.52 38.92 101.60 36.20L101.60 36.20Q109.92 34.92 115.68 35.08L115.68 35.08Q122.88 38.76 127.04 43.40ZM103.68 106.12L103.68 106.12Q101.28 107.72 101.12 107.88L101.12 107.88Q98.72 107.24 96.48 103.88L96.48 103.88L68.16 106.44L67.36 110.12L67.36 110.28Q64.80 110.12 63.04 106.60L63.04 106.60Q62.72 105.80 61.12 100.20L61.12 100.20Q57.76 89.16 53.76 82.12L53.76 82.12Q53.76 81.00 54.24 80.68L54.24 80.68Q59.68 80.68 61.76 81.96L61.76 81.96Q65.44 81.00 87.84 76.84L87.84 76.84L89.12 76.52L101.92 73.80L102.08 73.80Q105.12 73.48 110.56 77.00L110.56 77.00Q114.56 79.72 114.56 81.64L114.56 81.64Q114.56 82.28 111.68 85.32L111.68 85.32Q111.20 85.80 111.04 86.12L111.04 86.12Q109.60 88.68 106.40 99.24L106.40 99.24Q105.12 103.40 103.68 106.12ZM102.56 82.12L102.56 82.12L101.76 80.36Q97.12 78.60 88.48 80.68L88.48 80.68Q85.44 81.32 83.68 81.64L83.68 81.64L87.04 84.52L86.72 88.52L86.72 88.68Q94.56 86.92 95.52 89.96L95.52 89.96L95.68 90.76Q94.40 91.56 88.48 92.84L88.48 92.84Q87.20 93.16 86.24 93.48L86.24 93.48L85.76 99.88L95.20 99.40Q96.16 99.56 96.96 99.72L96.96 99.72Q99.68 95.56 102.08 84.36L102.08 84.36Q102.40 83.08 102.56 82.12ZM68 103.08L79.52 101.16L79.36 94.76L79.36 94.60L71.20 95.40L69.92 93.64L69.92 93.48Q71.52 92.52 79.04 90.76L79.04 90.76L78.24 83.72Q78.08 83.08 77.92 82.60L77.92 82.60Q67.20 84.84 64.16 85.80L64.16 85.80L67.52 101.80Q67.68 102.44 68 103.08L68 103.08ZM35.36 139.24L35.36 139.24L35.52 138.28Q44.16 137.32 56.64 137.00L56.64 137.00Q55.20 129.16 49.60 117.32L49.60 117.32Q49.60 116.20 50.08 115.88L50.08 115.88L58.88 116.84L59.04 116.84Q60 116.84 61.60 116.52L61.60 116.52L96.80 111.56Q101.76 110.76 106.08 109.64L106.08 109.64Q113.28 111.88 118.08 116.52L118.08 116.52Q118.08 118.76 115.68 121.80L115.68 121.80Q114.72 122.92 114.24 123.88L114.24 123.88Q112.96 125.96 110.40 132.52L110.40 132.52L125.44 130.92L125.60 130.92Q132.48 130.92 137.12 136.04L137.12 136.04Q140.32 139.40 137.92 140.36L137.92 140.36Q137.44 140.52 136.64 140.52L136.64 140.52Q96.64 138.92 83.52 139.40L83.52 139.40Q72.48 139.88 62.56 141.16L62.56 141.16L46.40 144.20L45.28 144.20Q41.44 144.52 38.08 142.12L38.08 142.12Q36.64 140.84 35.36 139.24ZM104.64 115.56L104.64 115.56Q101.44 114.44 93.76 115.72L93.76 115.72Q92 116.04 90.72 116.04L90.72 116.04Q93.44 116.84 94.56 119.56L94.56 119.56Q93.60 121.16 88.48 133.32L88.48 133.32Q88.16 133.96 88 134.76L88 134.76L100.96 133.48L104.32 121.48Q105.12 117.64 104.64 115.56ZM85.44 117.16L85.44 117.16L72.48 119.08Q75.68 130.60 76 133.80L76 133.80Q76 134.92 76 135.72L76 135.72Q76.80 135.56 82.08 135.24L82.08 135.24Q83.20 135.08 84.16 134.92L84.16 134.92Q87.20 121.64 85.44 117.16ZM62.24 136.52L72.16 136.04Q70.40 133.48 69.44 125.48L69.44 125.48Q69.12 121.96 68.48 120.04L68.48 120.04Q61.92 121.00 59.68 121.80L59.68 121.80L62.24 136.52Z" stroke="#000" fill="black" /></svg>